<?xml version="1.0" standalone="no"?>
<!DOCTYPE svg PUBLIC "-//W3C//DTD SVG 20010904//EN"
 "http://www.w3.org/TR/2001/REC-SVG-20010904/DTD/svg10.dtd">
<svg version="1.0" xmlns="http://www.w3.org/2000/svg"
 width="20.000000pt" height="20.000000pt" viewBox="0 0 948.000000 1280.000000"
 preserveAspectRatio="xMidYMid meet">
<metadata>
Created by potrace 1.15, written by Peter Selinger 2001-2017
</metadata>
<g transform="translate(0.000000,1280.000000) scale(0.100000,-0.100000)"
fill="#2d8dee" stroke="none">
<path d="M4420 12789 c-943 -64 -1863 -417 -2600 -998 -989 -780 -1620 -1890
-1780 -3131 -59 -455 -49 -840 30 -1209 241 -1122 1084 -2707 2479 -4656 588
-823 1434 -1907 2054 -2633 l137 -162 88 103 c303 353 824 996 1173 1447 1947
2515 3117 4541 3409 5901 79 369 89 754 30 1209 -160 1242 -791 2351 -1780
3131 -908 717 -2075 1076 -3240 998z m501 -299 c447 -20 821 -89 1239 -229
922 -309 1721 -921 2264 -1736 140 -209 218 -345 312 -540 211 -441 351 -920
408 -1400 33 -277 38 -655 11 -845 -76 -529 -286 -1122 -659 -1870 -616 -1232
-1641 -2757 -2995 -4455 -292 -366 -748 -915 -760 -915 -16 0 -529 621 -877
1060 -1085 1372 -1995 2693 -2584 3751 -552 991 -861 1777 -955 2429 -27 190
-22 568 11 845 144 1206 776 2297 1756 3033 697 522 1561 832 2437 871 91 5
171 9 176 9 6 1 103 -3 216 -8z"/>
<path d="M4515 10228 c-487 -49 -964 -277 -1315 -628 -328 -328 -538 -737
-615 -1200 -23 -134 -31 -422 -16 -562 55 -507 277 -973 631 -1328 369 -369
849 -587 1388 -631 360 -30 767 49 1106 215 681 332 1134 983 1217 1744 15
140 7 429 -16 562 -78 463 -285 869 -610 1195 -464 467 -1114 699 -1770 633z
m379 -218 c373 -31 730 -167 1031 -393 102 -76 303 -278 379 -380 217 -292
349 -631 386 -996 59 -585 -168 -1193 -598 -1603 -758 -721 -1946 -721 -2704
0 -335 319 -550 762 -598 1231 -48 478 91 972 386 1368 76 102 277 304 379
380 294 221 654 360 1011 391 140 13 193 13 328 2z"/>
</g>
</svg>
